<svg xmlns="http://www.w3.org/2000/svg" width="49.224" height="100%" viewBox="0 0 49.224 19.348">
  <path id="Path_9" data-name="Path 9" d="M11.088.364A9.174,9.174,0,0,1,4.354-2.352a9.413,9.413,0,0,1-2.73-6.972,9.366,9.366,0,0,1,2.73-6.958,9.2,9.2,0,0,1,6.734-2.7,8.9,8.9,0,0,1,7.028,3.192l-1.2.868a7.121,7.121,0,0,0-2.534-1.9,7.8,7.8,0,0,0-3.29-.7,7.424,7.424,0,0,0-5.558,2.3A8.134,8.134,0,0,0,3.3-9.324,8.2,8.2,0,0,0,5.53-3.416a7.379,7.379,0,0,0,5.558,2.324,7.272,7.272,0,0,0,3.136-.672,8.261,8.261,0,0,0,2.352-1.6V-7.84H9.52V-9.268h8.652v6.524A9.068,9.068,0,0,1,11.088.364ZM29.12.336a7.182,7.182,0,0,1-6.3-3.052L23.884-3.78A6.046,6.046,0,0,0,29.12-1.12a4.616,4.616,0,0,0,3.346-1.288,4.3,4.3,0,0,0,1.33-3.22,4.369,4.369,0,0,0-1.3-3.332,4.671,4.671,0,0,0-3.346-1.232,6.53,6.53,0,0,0-4.536,1.82l-1.2-.5v-9.8h10.78v1.456H25v7.308a6.147,6.147,0,0,1,4.452-1.736,6.051,6.051,0,0,1,4.228,1.582A5.63,5.63,0,0,1,35.42-5.684,5.616,5.616,0,0,1,33.6-1.316,6.421,6.421,0,0,1,29.12.336ZM50.848,0H40.208V-18.676h1.6v17.22h9.044Z" transform="translate(-1.624 18.984)" fill="#454545"/>
</svg>
