<svg xmlns="http://www.w3.org/2000/svg" width="25" height="25" viewBox="0 0 25 25">
  <path id="Icon_simple-instagram" data-name="Icon simple-instagram" d="M12.5,0C9.1,0,8.68.016,7.347.075A9.217,9.217,0,0,0,4.313.656,6.121,6.121,0,0,0,2.1,2.1,6.1,6.1,0,0,0,.656,4.313,9.19,9.19,0,0,0,.075,7.347C.012,8.68,0,9.1,0,12.5s.016,3.82.075,5.153a9.223,9.223,0,0,0,.581,3.034A6.13,6.13,0,0,0,2.1,22.9a6.113,6.113,0,0,0,2.215,1.442,9.229,9.229,0,0,0,3.034.581C8.68,24.987,9.1,25,12.5,25s3.82-.016,5.153-.075a9.25,9.25,0,0,0,3.034-.581,6.388,6.388,0,0,0,3.656-3.656,9.223,9.223,0,0,0,.581-3.034C24.988,16.32,25,15.9,25,12.5s-.016-3.82-.075-5.153a9.244,9.244,0,0,0-.581-3.034A6.135,6.135,0,0,0,22.9,2.1,6.09,6.09,0,0,0,20.688.656,9.2,9.2,0,0,0,17.653.075C16.32.012,15.9,0,12.5,0Zm0,2.25c3.336,0,3.734.017,5.052.074a6.887,6.887,0,0,1,2.32.432,4.114,4.114,0,0,1,2.373,2.372,6.9,6.9,0,0,1,.43,2.32c.059,1.319.073,1.715.073,5.052s-.016,3.734-.077,5.052a7.034,7.034,0,0,1-.439,2.32,3.969,3.969,0,0,1-.936,1.44,3.9,3.9,0,0,1-1.437.933,6.952,6.952,0,0,1-2.328.43c-1.327.059-1.718.073-5.061.073s-3.735-.016-5.061-.077a7.088,7.088,0,0,1-2.329-.439A3.871,3.871,0,0,1,3.642,21.3,3.8,3.8,0,0,1,2.7,19.858a7.094,7.094,0,0,1-.437-2.328C2.22,16.218,2.2,15.813,2.2,12.484s.017-3.735.064-5.064A7.086,7.086,0,0,1,2.7,5.094a3.705,3.705,0,0,1,.937-1.439A3.7,3.7,0,0,1,5.078,2.72a6.918,6.918,0,0,1,2.314-.439c1.328-.047,1.719-.062,5.061-.062l.047.031Zm0,3.831A6.419,6.419,0,1,0,18.919,12.5,6.418,6.418,0,0,0,12.5,6.081Zm0,10.585A4.167,4.167,0,1,1,16.667,12.5,4.166,4.166,0,0,1,12.5,16.667ZM20.673,5.828a1.5,1.5,0,1,1-1.5-1.5A1.5,1.5,0,0,1,20.673,5.828Z" fill="#fff"/>
</svg>
