<svg xmlns="http://www.w3.org/2000/svg" width="25" height="25" viewBox="0 0 25 25">
  <path id="Icon_simple-linkedin" data-name="Icon simple-linkedin" d="M21.3,21.3H17.6V15.5c0-1.383-.028-3.164-1.929-3.164-1.93,0-2.225,1.505-2.225,3.061v5.9h-3.7V9.375H13.3V11h.048a3.9,3.9,0,0,1,3.51-1.927c3.751,0,4.445,2.469,4.445,5.682V21.3ZM5.559,7.743a2.15,2.15,0,1,1,2.15-2.151A2.148,2.148,0,0,1,5.559,7.743ZM7.416,21.3H3.7V9.375H7.416ZM23.151,0H1.845A1.823,1.823,0,0,0,0,1.8V23.2A1.822,1.822,0,0,0,1.845,25h21.3A1.829,1.829,0,0,0,25,23.2V1.8A1.83,1.83,0,0,0,23.148,0Z" fill="#fff"/>
</svg>
