<svg xmlns="http://www.w3.org/2000/svg" width="25.635" height="25" viewBox="0 0 25.635 25">
  <path id="Icon_simple-github" data-name="Icon simple-github" d="M12.817.445A12.818,12.818,0,0,0,8.764,25.423c.641.121.876-.276.876-.616,0-.3-.011-1.111-.016-2.179-3.565.773-4.317-1.72-4.317-1.72A3.4,3.4,0,0,0,3.88,19.034c-1.161-.795.09-.779.09-.779a2.688,2.688,0,0,1,1.963,1.32,2.731,2.731,0,0,0,3.733,1.066,2.733,2.733,0,0,1,.812-1.714C7.632,18.607,4.64,17.5,4.64,12.593A4.945,4.945,0,0,1,5.959,9.154a4.557,4.557,0,0,1,.112-3.392S7.145,5.418,9.6,7.075a12.084,12.084,0,0,1,6.409,0c2.435-1.658,3.509-1.314,3.509-1.314a4.683,4.683,0,0,1,.128,3.392,4.965,4.965,0,0,1,1.314,3.439c0,4.924-3,6.008-5.848,6.323a3.069,3.069,0,0,1,.865,2.371c0,1.715-.016,3.093-.016,3.51,0,.336.224.737.881.609A12.8,12.8,0,0,0,12.817.445" transform="translate(0 -0.445)" fill="#fff"/>
</svg>
